# xmcd
#
# Track frame offsets: 
#        150
#        37534
#        56569
#        80819
#        98711
#        117481
#        133924
#        154922
#        178440
#        200654
#        242191
#        263585
#        286481
#        312771
#        329983
#
# Disc length: 4700 seconds
#
# Revision: 3
# Processed by: cddbd v1.5.2PL0 Copyright (c) Steve Scherf et al.
# Submitted via: ExactAudioCopyFreeDBPlugin 1.0
#
DISCID=e5125a0f
DTITLE=Gene Chandler - Get Down With Get Down - The Best Of The Chi-So
DTITLE=und Years 1978-83
DYEAR=1999
DGENRE=Soul+Disco
TTITLE0=Get Down (12 Inch)
TTITLE1=Does She Have A Friend For Me?
TTITLE2=Skate A.K.A. Miss Crazy Legs (Previously Unissued)
TTITLE3=Good For You (Previously Unissued)
TTITLE4=Let Me Make Love To You
TTITLE5=Gene Chandler and Barbara Acklin - I'll Be There (Previously Uni
TTITLE5=ssued Version)
TTITLE6=All About The Paper
TTITLE7=Where Have You Been (Previously Unissued)
TTITLE8=I'll Make The Living If You Make The Loving Worthwhile
TTITLE9=When You're # 1
TTITLE10=Time Is A Thief
TTITLE11=Do What Comes So Natural
TTITLE12=Love Is The Answer
TTITLE13=I Keep Coming Back
TTITLE14=Get Down (Previously Unissued Demo Version)
EXTD=YEAR: 1999
EXTT0=
EXTT1=
EXTT2=
EXTT3=
EXTT4=
EXTT5=
EXTT6=
EXTT7=
EXTT8=
EXTT9=
EXTT10=
EXTT11=
EXTT12=
EXTT13=
EXTT14=
PLAYORDER=
